<svg width="220" height="70" viewBox="0 0 220 70" fill="none" xmlns="http://www.w3.org/2000/svg">
<path d="M71.1791 47.8921C69.4438 47.8921 67.8263 47.5945 66.3267 46.9992C64.8485 46.3811 63.5631 45.5112 62.4706 44.3894C61.378 43.2677 60.5211 41.9513 59.8998 40.4404C59.3 38.9294 59 37.2696 59 35.4611C59 33.6526 59.3 31.9928 59.8998 30.4819C60.5211 28.9709 61.378 27.6545 62.4706 26.5328C63.5845 25.4111 64.8807 24.5526 66.3589 23.9574C67.8371 23.3392 69.4546 23.0302 71.2112 23.0302C73.1607 23.0302 74.9175 23.3964 76.4813 24.1291C78.0667 24.8387 79.3949 25.8919 80.4661 27.2883L77.124 30.5849C76.3528 29.6462 75.4959 28.9481 74.5533 28.4902C73.6106 28.0094 72.5823 27.7691 71.4683 27.7691C70.4186 27.7691 69.4546 27.9522 68.5762 28.3185C67.6978 28.6847 66.9373 29.2113 66.2946 29.8981C65.6519 30.5849 65.1485 31.3976 64.7843 32.3362C64.4415 33.2749 64.2701 34.3164 64.2701 35.4611C64.2701 36.6058 64.4415 37.6474 64.7843 38.586C65.1485 39.5247 65.6519 40.3374 66.2946 41.0242C66.9373 41.7109 67.6978 42.2375 68.5762 42.6038C69.4546 42.97 70.4186 43.1532 71.4683 43.1532C72.5823 43.1532 73.6106 42.9243 74.5533 42.4664C75.4959 41.9857 76.3528 41.2645 77.124 40.303L80.4661 43.5996C79.3949 44.9961 78.0667 46.0606 76.4813 46.7932C74.9175 47.5258 73.1501 47.8921 71.1791 47.8921ZM91.2583 47.7547C89.416 47.7547 87.7771 47.3426 86.3417 46.5185C84.9277 45.6943 83.803 44.5726 82.9675 43.1532C82.1535 41.7109 81.7464 40.0741 81.7464 38.2426C81.7464 36.3883 82.1535 34.7515 82.9675 33.3321C83.803 31.8898 84.9277 30.7681 86.3417 29.9668C87.7771 29.1426 89.416 28.7306 91.2583 28.7306C93.0794 28.7306 94.7075 29.1426 96.1428 29.9668C97.5782 30.7681 98.7029 31.8783 99.517 33.2977C100.331 34.7171 100.738 36.3655 100.738 38.2426C100.738 40.0741 100.331 41.7109 99.517 43.1532C98.7029 44.5726 97.5782 45.6943 96.1428 46.5185C94.7075 47.3426 93.0794 47.7547 91.2583 47.7547ZM91.2583 43.3592C92.0938 43.3592 92.8437 43.1532 93.5077 42.7411C94.1719 42.3291 94.6967 41.7453 95.0823 40.9898C95.468 40.2115 95.6608 39.2957 95.6608 38.2426C95.6608 37.1666 95.468 36.2509 95.0823 35.4955C94.6967 34.74 94.1719 34.1562 93.5077 33.7442C92.8437 33.3321 92.0938 33.126 91.2583 33.126C90.4228 33.126 89.6731 33.3321 89.0089 33.7442C88.3448 34.1562 87.8092 34.74 87.4021 35.4955C87.0165 36.2509 86.8237 37.1666 86.8237 38.2426C86.8237 39.2957 87.0165 40.2115 87.4021 40.9898C87.8092 41.7453 88.3448 42.3291 89.0089 42.7411C89.6731 43.1532 90.4228 43.3592 91.2583 43.3592ZM114.597 28.7306C115.968 28.7306 117.189 29.0281 118.26 29.6234C119.353 30.1957 120.209 31.0885 120.831 32.3019C121.453 33.4923 121.763 35.0262 121.763 36.9034V47.48H116.75V37.7275C116.75 36.2395 116.439 35.1406 115.818 34.4309C115.218 33.7213 114.361 33.3664 113.247 33.3664C112.455 33.3664 111.737 33.5496 111.094 33.9158C110.473 34.2592 109.98 34.7972 109.616 35.5298C109.273 36.2624 109.102 37.201 109.102 38.3457V47.48H104.089V29.0053H108.877V34.1219L107.977 32.5766C108.599 31.3404 109.488 30.3904 110.644 29.7264C111.801 29.0625 113.119 28.7306 114.597 28.7306ZM132.124 47.7547C130.646 47.7547 129.221 47.5715 127.85 47.2053C126.5 46.8161 125.429 46.3353 124.637 45.763L126.308 41.917C127.1 42.4436 128.032 42.8785 129.103 43.2219C130.196 43.5424 131.266 43.7026 132.317 43.7026C133.474 43.7026 134.287 43.5538 134.759 43.2562C135.251 42.9587 135.498 42.5466 135.498 42.02C135.498 41.5851 135.305 41.2645 134.92 41.0585C134.555 40.8296 134.062 40.6579 133.442 40.5434C132.82 40.4289 132.134 40.3145 131.385 40.2C130.656 40.0855 129.917 39.9368 129.168 39.7536C128.417 39.5475 127.731 39.25 127.111 38.8608C126.489 38.4715 125.986 37.9451 125.601 37.2811C125.236 36.6172 125.054 35.7587 125.054 34.7057C125.054 33.5381 125.365 32.5079 125.986 31.6151C126.629 30.7223 127.55 30.024 128.75 29.5204C129.949 28.9938 131.385 28.7306 133.056 28.7306C134.234 28.7306 135.434 28.8679 136.655 29.1426C137.876 29.4174 138.893 29.8179 139.708 30.3445L138.037 34.1562C137.201 33.6296 136.355 33.2749 135.498 33.0917C134.663 32.8857 133.848 32.7826 133.056 32.7826C131.941 32.7826 131.128 32.9428 130.614 33.2634C130.1 33.5839 129.842 33.996 129.842 34.4996C129.842 34.9575 130.024 35.3009 130.389 35.5298C130.774 35.7587 131.277 35.9419 131.899 36.0792C132.52 36.2166 133.194 36.3425 133.924 36.457C134.673 36.5485 135.423 36.6974 136.173 36.9034C136.922 37.1094 137.597 37.407 138.198 37.7962C138.818 38.1625 139.322 38.6776 139.708 39.3415C140.093 39.9825 140.286 40.8296 140.286 41.8826C140.286 43.0273 139.965 44.046 139.322 44.9389C138.68 45.8088 137.748 46.4956 136.527 46.9992C135.326 47.5029 133.859 47.7547 132.124 47.7547ZM153.887 28.7306C155.257 28.7306 156.479 29.0281 157.55 29.6234C158.643 30.1957 159.499 31.0885 160.121 32.3019C160.743 33.4923 161.053 35.0262 161.053 36.9034V47.48H156.04V37.7275C156.04 36.2395 155.73 35.1406 155.108 34.4309C154.508 33.7213 153.651 33.3664 152.537 33.3664C151.745 33.3664 151.027 33.5496 150.384 33.9158C149.762 34.2592 149.27 34.7972 148.906 35.5298C148.563 36.2624 148.392 37.201 148.392 38.3457V47.48H143.379V22H148.392V34.1219L147.267 32.5766C147.889 31.3404 148.777 30.3904 149.934 29.7264C151.091 29.0625 152.409 28.7306 153.887 28.7306ZM176.202 47.48V43.8743L175.881 43.0845V36.6287C175.881 35.484 175.548 34.5912 174.884 33.9502C174.242 33.3092 173.245 32.9887 171.896 32.9887C170.974 32.9887 170.064 33.1489 169.164 33.4694C168.286 33.767 167.535 34.1791 166.915 34.7057L165.115 30.9626C166.057 30.253 167.193 29.7036 168.522 29.3143C169.849 28.9251 171.199 28.7306 172.571 28.7306C175.206 28.7306 177.251 29.3945 178.708 30.7223C180.164 32.05 180.894 34.1219 180.894 36.9377V47.48H176.202ZM170.932 47.7547C169.582 47.7547 168.425 47.5143 167.461 47.0336C166.497 46.53 165.758 45.8545 165.244 45.0075C164.73 44.1605 164.473 43.2104 164.473 42.1574C164.473 41.0585 164.719 40.097 165.212 39.2728C165.726 38.4487 166.529 37.8077 167.622 37.3498C168.714 36.8691 170.138 36.6287 171.896 36.6287H176.491V39.7536H172.442C171.263 39.7536 170.45 39.9596 170 40.3717C169.571 40.7838 169.357 41.2989 169.357 41.917C169.357 42.6038 169.603 43.1532 170.096 43.5653C170.61 43.9545 171.306 44.1491 172.185 44.1491C173.021 44.1491 173.77 43.943 174.434 43.5309C175.098 43.096 175.58 42.4664 175.881 41.6423L176.652 44.1147C176.287 45.3051 175.623 46.2094 174.659 46.8275C173.695 47.4457 172.452 47.7547 170.932 47.7547ZM183.246 47.48L190.99 36.6287L190.894 39.5819L183.471 29.0053H189.094L193.786 35.9075L191.665 35.9762L196.517 29.0053H201.852L194.396 39.4789V36.5943L202.109 47.48H196.421L191.504 40.1313L193.593 40.4404L188.709 47.48H183.246Z" fill="white"/>
<mask id="mask0_814_412" style="mask-type:luminance" maskUnits="userSpaceOnUse" x="0" y="14" width="43" height="43">
<path d="M43 14H0V57H43V14Z" fill="white"/>
</mask>
<g mask="url(#mask0_814_412)">
<path d="M34.4212 22.5781H0V56.9993H34.4212V22.5781Z" fill="#5310F0"/>
<path d="M43.0002 14H8.60547V48.3947H43.0002V14Z" fill="#5310F0"/>
<path d="M15.0925 22.5781H8.60547V48.3675H15.0925V22.5781Z" fill="white"/>
<path d="M34.4212 41.9336H8.63184V48.3942H34.4212V41.9336Z" fill="white"/>
<path d="M34.4212 22.5781H8.63184V29.0387H34.4212V22.5781Z" fill="white"/>
</g>
</svg>
